<svg viewBox="0 0 23 24" fill="none" xmlns="http://www.w3.org/2000/svg">
<path d="M0 12.375C0 6.04102 5.12109 0.875 11.5 0.875C17.834 0.875 23 6.04102 23 12.375C23 18.7539 17.834 23.875 11.5 23.875C5.12109 23.875 0 18.7539 0 12.375ZM16.666 10.3984C17.1602 9.9043 17.1602 9.14062 16.666 8.64648C16.1719 8.15234 15.4082 8.15234 14.9141 8.64648L10.0625 13.498L8.04102 11.5215C7.54688 11.0273 6.7832 11.0273 6.28906 11.5215C5.79492 12.0156 5.79492 12.7793 6.28906 13.2734L9.16406 16.1484C9.6582 16.6426 10.4219 16.6426 10.916 16.1484L16.666 10.3984Z" fill="#d1e7e7"/>
</svg>
