<svg viewBox="0 0 24 24" fill="none" xmlns="http://www.w3.org/2000/svg">
<path d="M0.5 11.875C0.5 5.54102 5.62109 0.375 12 0.375C18.334 0.375 23.5 5.54102 23.5 11.875C23.5 18.2539 18.334 23.375 12 23.375C5.62109 23.375 0.5 18.2539 0.5 11.875ZM8.36133 9.76367L10.4727 11.875L8.36133 13.9863C7.91211 14.4355 7.91211 15.1094 8.36133 15.5137C8.76562 15.9629 9.43945 15.9629 9.84375 15.5137L11.9551 13.4023L14.1113 15.5137C14.5156 15.9629 15.1895 15.9629 15.5938 15.5137C16.043 15.1094 16.043 14.4355 15.5938 13.9863L13.4824 11.875L15.5938 9.76367C16.043 9.35938 16.043 8.68555 15.5938 8.23633C15.1895 7.83203 14.5156 7.83203 14.1113 8.23633L11.9551 10.3926L9.84375 8.23633C9.43945 7.83203 8.76562 7.83203 8.36133 8.23633C7.91211 8.68555 7.91211 9.35938 8.36133 9.76367Z" fill=" rgb(252, 173, 173)"/>
</svg>
